# xmcd
#
# Track frame offsets: 
#        150
#        23335
#        39705
#        62742
#        83269
#        100867
#        113101
#        138532
#        156786
#        175103
#        187889
#        207634
#        220772
#
# Disc length: 3312 seconds
#
# Revision: 0
# Processed by: cddbd v1.5.1PL0 Copyright (c) Steve Scherf et al.
# Submitted via: ExactAudioCopy v0.95a5
#
DISCID=a50cee0d
DTITLE=David Vest and the Willing Victims - Serve Me Right to Shuffle
DYEAR=2005
DGENRE=Blues
TTITLE0=Not This Fool
TTITLE1=Shake Tonight
TTITLE2=All I Need Is You
TTITLE3=Down That Highway
TTITLE4=1948 (Vanport Flood)
TTITLE5=This Place Has Changed
TTITLE6=Turn The Road Around
TTITLE7=Come Down
TTITLE8=Vestitution
TTITLE9=Try Not To Kill Me
TTITLE10=Take Me Back
TTITLE11=Rebel River
TTITLE12=Runnin' Partner (live)
EXTD=
EXTT0=
EXTT1=
EXTT2=
EXTT3=
EXTT4=
EXTT5=
EXTT6=
EXTT7=
EXTT8=
EXTT9=
EXTT10=
EXTT11=
EXTT12=
PLAYORDER=
